# This file uses centimeters as units for non-parametric coordinates.

mtllib radar.mtl
g default
v 0.490392 0.000000 -0.097545
v 0.461939 0.000000 -0.191341
v 0.415734 0.000000 -0.277785
v 0.353553 0.000000 -0.353553
v 0.277785 0.000000 -0.415734
v 0.191342 0.000000 -0.461939
v 0.097545 0.000000 -0.490392
v 0.000000 0.000000 -0.500000
v -0.097545 0.000000 -0.490392
v -0.191342 0.000000 -0.461940
v -0.277785 0.000000 -0.415735
v -0.353553 0.000000 -0.353553
v -0.415735 0.000000 -0.277785
v -0.461940 0.000000 -0.191342
v -0.490392 0.000000 -0.097545
v -0.500000 0.000000 -0.000000
v -0.490393 0.000000 0.097545
v -0.461940 0.000000 0.191341
v -0.415735 0.000000 0.277785
v -0.353553 0.000000 0.353553
v -0.277785 0.000000 0.415734
v -0.191342 0.000000 0.461939
v -0.097545 0.000000 0.490392
v -0.000000 0.000000 0.500000
v 0.097545 0.000000 0.490392
v 0.191341 0.000000 0.461940
v 0.277785 0.000000 0.415735
v 0.353553 0.000000 0.353553
v 0.415735 0.000000 0.277785
v 0.461940 0.000000 0.191342
v 0.490392 0.000000 0.097545
v 0.500000 0.000000 -0.000000
v 0.471940 0.000000 -0.093875
v 0.444558 0.000000 -0.184142
v 0.400091 0.000000 -0.267333
v 0.340250 0.000000 -0.340250
v 0.267333 0.000000 -0.400092
v 0.184142 0.000000 -0.444558
v 0.093875 0.000000 -0.471941
v -0.000000 0.000000 -0.481186
v -0.093875 0.000000 -0.471941
v -0.184142 0.000000 -0.444558
v -0.267333 0.000000 -0.400092
v -0.340250 0.000000 -0.340250
v -0.400092 0.000000 -0.267333
v -0.444558 0.000000 -0.184142
v -0.471941 0.000000 -0.093875
v -0.481186 0.000000 -0.000000
v -0.471941 0.000000 0.093874
v -0.444558 0.000000 0.184142
v -0.400092 0.000000 0.267332
v -0.340250 0.000000 0.340250
v -0.267333 0.000000 0.400092
v -0.184142 0.000000 0.444558
v -0.093875 0.000000 0.471940
v -0.000000 0.000000 0.481186
v 0.093875 0.000000 0.471940
v 0.184142 0.000000 0.444558
v 0.267333 0.000000 0.400092
v 0.340250 0.000000 0.340250
v 0.400092 0.000000 0.267333
v 0.444558 0.000000 0.184142
v 0.471941 0.000000 0.093875
v 0.481186 0.000000 -0.000000
v 0.181761 -0.050000 0.465827
v 0.200239 -0.050000 0.458173
v 0.181761 0.050000 0.465827
v 0.200239 0.050000 0.458173
v -0.200239 -0.050000 0.458173
v -0.181761 -0.050000 0.465827
v -0.200239 0.050000 0.458173
v -0.181761 0.050000 0.465827
vt 0.653248 0.813267
vt 0.644356 0.783956
vt 0.629917 0.756942
vt 0.610485 0.733265
vt 0.586808 0.713833
vt 0.559794 0.699394
vt 0.530483 0.690502
vt 0.500000 0.687500
vt 0.469517 0.690502
vt 0.440206 0.699394
vt 0.413192 0.713833
vt 0.389515 0.733265
vt 0.370083 0.756942
vt 0.355644 0.783956
vt 0.346752 0.813267
vt 0.343750 0.843750
vt 0.346752 0.874233
vt 0.355644 0.903544
vt 0.370083 0.930558
vt 0.389515 0.954235
vt 0.413192 0.973667
vt 0.440206 0.988106
vt 0.469517 0.996998
vt 0.500000 1.000000
vt 0.530483 0.996998
vt 0.559794 0.988106
vt 0.586808 0.973667
vt 0.610485 0.954235
vt 0.629917 0.930558
vt 0.644356 0.903544
vt 0.653248 0.874233
vt 0.656250 0.843750
vt 0.576624 0.828509
vt 0.572178 0.813853
vt 0.564959 0.800346
vt 0.555243 0.788507
vt 0.543404 0.778792
vt 0.529897 0.771572
vt 0.515241 0.767126
vt 0.500000 0.765625
vt 0.484759 0.767126
vt 0.470103 0.771572
vt 0.456596 0.778791
vt 0.444757 0.788507
vt 0.435041 0.800346
vt 0.427822 0.813853
vt 0.423376 0.828509
vt 0.421875 0.843750
vt 0.423376 0.858991
vt 0.427822 0.873647
vt 0.435041 0.887154
vt 0.444757 0.898993
vt 0.456596 0.908709
vt 0.470103 0.915928
vt 0.484759 0.920374
vt 0.500000 0.921875
vt 0.515241 0.920374
vt 0.529897 0.915928
vt 0.543404 0.908709
vt 0.555243 0.898993
vt 0.564959 0.887154
vt 0.572178 0.873647
vt 0.576624 0.858991
vt 0.578125 0.843750
vt 0.000000 0.000000
vt 0.200000 0.000000
vt 0.200000 1.000000
vt 0.000000 1.000000
vt 0.000000 0.000000
vt 0.200000 0.000000
vt 0.200000 1.000000
vt 0.000000 1.000000
vn 0.000000 1.000000 0.000000
vn 0.000000 1.000000 0.000000
vn 0.000000 1.000000 0.000000
vn 0.000000 1.000000 0.000000
vn 0.000000 1.000000 0.000000
vn 0.000000 1.000000 0.000000
vn 0.000000 1.000000 0.000000
vn 0.000000 1.000000 0.000000
vn 0.000000 1.000000 0.000000
vn 0.000000 1.000000 0.000000
vn 0.000000 1.000000 0.000000
vn 0.000000 1.000000 0.000000
vn 0.000000 1.000000 0.000000
vn 0.000000 1.000000 0.000000
vn 0.000000 1.000000 0.000000
vn 0.000000 1.000000 0.000000
vn 0.000000 1.000000 0.000000
vn 0.000000 1.000000 0.000000
vn 0.000000 1.000000 0.000000
vn 0.000000 1.000000 0.000000
vn 0.000000 1.000000 0.000000
vn 0.000000 1.000000 0.000000
vn 0.000000 1.000000 0.000000
vn 0.000000 1.000000 0.000000
vn 0.000000 1.000000 0.000000
vn 0.000000 1.000000 0.000000
vn 0.000000 1.000000 0.000000
vn 0.000000 1.000000 0.000000
vn 0.000000 1.000000 0.000000
vn 0.000000 1.000000 0.000000
vn 0.000000 1.000000 0.000000
vn 0.000000 1.000000 0.000000
vn 0.000000 1.000000 0.000000
vn 0.000000 1.000000 0.000000
vn 0.000000 1.000000 0.000000
vn 0.000000 1.000000 0.000000
vn 0.000000 1.000000 0.000000
vn 0.000000 1.000000 0.000000
vn 0.000000 1.000000 0.000000
vn 0.000000 1.000000 0.000000
vn 0.000000 1.000000 0.000000
vn 0.000000 1.000000 0.000000
vn 0.000000 1.000000 0.000000
vn 0.000000 1.000000 0.000000
vn 0.000000 1.000000 0.000000
vn 0.000000 1.000000 0.000000
vn 0.000000 1.000000 0.000000
vn 0.000000 1.000000 0.000000
vn 0.000000 1.000000 0.000000
vn 0.000000 1.000000 0.000000
vn 0.000000 1.000000 0.000000
vn 0.000000 1.000000 0.000000
vn 0.000000 1.000000 0.000000
vn 0.000000 1.000000 0.000000
vn 0.000000 1.000000 0.000000
vn 0.000000 1.000000 0.000000
vn 0.000000 1.000000 0.000000
vn 0.000000 1.000000 0.000000
vn 0.000000 1.000000 0.000000
vn 0.000000 1.000000 0.000000
vn 0.000000 1.000000 0.000000
vn 0.000000 1.000000 0.000000
vn 0.000000 1.000000 0.000000
vn 0.000000 1.000000 0.000000
vn 0.382683 0.000000 0.923880
vn 0.382683 0.000000 0.923880
vn 0.382683 0.000000 0.923880
vn 0.382683 0.000000 0.923880
vn -0.382683 0.000000 0.923880
vn -0.382683 0.000000 0.923880
vn -0.382683 0.000000 0.923880
vn -0.382683 0.000000 0.923880
s 1
g radar_ring
usemtl initialShadingGroup
f 1/31/1 2/30/2 34/62/3 33/63/4
f 2/30/2 3/29/5 35/61/6 34/62/3
f 3/29/5 4/28/7 36/60/8 35/61/6
f 4/28/7 5/27/9 37/59/10 36/60/8
f 5/27/9 6/26/11 38/58/12 37/59/10
f 6/26/11 7/25/13 39/57/14 38/58/12
f 7/25/13 8/24/15 40/56/16 39/57/14
f 8/24/15 9/23/17 41/55/18 40/56/16
f 9/23/17 10/22/19 42/54/20 41/55/18
f 10/22/19 11/21/21 43/53/22 42/54/20
f 11/21/21 12/20/23 44/52/24 43/53/22
f 12/20/23 13/19/25 45/51/26 44/52/24
f 13/19/25 14/18/27 46/50/28 45/51/26
f 14/18/27 15/17/29 47/49/30 46/50/28
f 15/17/29 16/16/31 48/48/32 47/49/30
f 16/16/31 17/15/33 49/47/34 48/48/32
f 17/15/33 18/14/35 50/46/36 49/47/34
f 18/14/35 19/13/37 51/45/38 50/46/36
f 19/13/37 20/12/39 52/44/40 51/45/38
f 20/12/39 21/11/41 53/43/42 52/44/40
f 21/11/41 22/10/43 54/42/44 53/43/42
f 22/10/43 23/9/45 55/41/46 54/42/44
f 23/9/45 24/8/47 56/40/48 55/41/46
f 24/8/47 25/7/49 57/39/50 56/40/48
f 25/7/49 26/6/51 58/38/52 57/39/50
f 26/6/51 27/5/53 59/37/54 58/38/52
f 27/5/53 28/4/55 60/36/56 59/37/54
f 28/4/55 29/3/57 61/35/58 60/36/56
f 29/3/57 30/2/59 62/34/60 61/35/58
f 30/2/59 31/1/61 63/33/62 62/34/60
f 31/1/61 32/32/63 64/64/64 63/33/62
f 32/32/63 1/31/1 33/63/4 64/64/64
s off
f 65/65/65 66/66/66 68/67/67 67/68/68
f 69/69/69 70/70/70 72/71/71 71/72/72
g default
v -0.025000 -0.000000 0.025000
v 0.025000 -0.000000 0.025000
v -0.025000 0.000000 -0.025000
v 0.025000 0.000000 -0.025000
vt 0.000000 0.000000
vt 1.000000 0.000000
vt 0.000000 1.000000
vt 1.000000 1.000000
vn 0.000000 1.000000 0.000000
vn 0.000000 1.000000 0.000000
vn 0.000000 1.000000 0.000000
vn 0.000000 1.000000 0.000000
s off
g blip_billboard
usemtl initialShadingGroup
f 73/73/73 74/74/74 76/76/75 75/75/76
